<?xml version="1.0" standalone="no"?><!DOCTYPE svg PUBLIC "-//W3C//DTD SVG 1.1//EN" "http://www.w3.org/Graphics/SVG/1.1/DTD/svg11.dtd"><svg class="icon" width="16px" height="16.00px" viewBox="0 0 1024 1024" version="1.1" xmlns="http://www.w3.org/2000/svg"><path d="M512 512m-438.857143 0a438.857143 438.857143 0 1 0 877.714286 0 438.857143 438.857143 0 1 0-877.714286 0Z" fill="#6DD46F" /><path d="M336.457143 490.057143c-14.628571-14.628571-36.571429-14.628571-51.2 0-14.628571 14.628571-14.628571 40.228571 0 54.857143l153.6 160.914285c14.628571 14.628571 36.571429 14.628571 51.2 0l281.6-296.228571c14.628571-14.628571 14.628571-40.228571 0-54.857143-14.628571-14.628571-36.571429-14.628571-51.2 0l-256 270.628572-128-135.314286z" fill="#FFFFFF" /></svg>