<?xml version="1.0" standalone="no"?><!DOCTYPE svg PUBLIC "-//W3C//DTD SVG 1.1//EN" "http://www.w3.org/Graphics/SVG/1.1/DTD/svg11.dtd"><svg class="icon" width="16px" height="16.00px" viewBox="0 0 1024 1024" version="1.1" xmlns="http://www.w3.org/2000/svg"><path fill="#BDBEBF" d="M511.674 63.445c-247.54 0-448.208 200.65-448.208 448.208 0 247.521 200.668 448.208 448.208 448.208s448.208-200.687 448.208-448.208c0-247.557-200.668-448.208-448.208-448.208zM672.57 741.847c-14.571 14.7-38.5 14.7-53.063 0L487.019 608.64c-9.894-9.957-9-23.817-9-44.9 0-21.12-4.78-265.213-4.78-265.213 0-20.936 16.753-37.897 37.415-37.897s37.414 16.961 37.414 37.897V563.74c0 1.094 124.792 124.82 124.792 124.82 14.563 14.698 14.271 38.552-0.291 53.287z" /></svg>