<?xml version="1.0" standalone="no"?><!DOCTYPE svg PUBLIC "-//W3C//DTD SVG 1.1//EN" "http://www.w3.org/Graphics/SVG/1.1/DTD/svg11.dtd"><svg class="icon" width="16px" height="16.00px" viewBox="0 0 1024 1024" version="1.1" xmlns="http://www.w3.org/2000/svg"><path fill="#F35C61" d="M512 113.777778a398.222222 398.222222 0 1 1 0 796.444444A398.222222 398.222222 0 0 1 512 113.777778z m173.169778 196.039111a34.133333 34.133333 0 0 0-23.438222 10.353778L514.844444 466.944 368.412444 320.568889a34.133333 34.133333 0 1 0-48.241777 48.241778l146.488889 146.488889-146.147556 146.147555a34.133333 34.133333 0 1 0 48.241778 48.241778l146.147555-146.147556 146.488889 146.488889a34.133333 34.133333 0 1 0 48.241778-48.241778L563.143111 515.242667l146.773333-146.773334a34.133333 34.133333 0 0 0-24.746666-58.595555z"  /></svg>